<svg width="20" height="20" viewBox="0 0 20 20" fill="none" xmlns="http://www.w3.org/2000/svg">
  <path d="M10 20C8.02219 20 6.08879 19.4135 4.4443 18.3147C2.79981 17.2159 1.51809 15.6541 0.761209 13.8268C0.00433281 11.9996 -0.1937 9.98891 0.192152 8.0491C0.578004 6.10929 1.53041 4.32746 2.92894 2.92894C4.32746 1.53041 6.10929 0.578004 8.0491 0.192152C9.98891 -0.1937 11.9996 0.00433281 13.8268 0.761209C15.6541 1.51809 17.2159 2.79981 18.3147 4.4443C19.4135 6.08879 20 8.02219 20 10C19.997 12.6513 18.9425 15.1931 17.0678 17.0678C15.1931 18.9425 12.6513 19.997 10 20ZM10 1.25C8.26942 1.25 6.57769 1.76318 5.13876 2.72465C3.69983 3.68611 2.57833 5.05267 1.91606 6.65152C1.25379 8.25038 1.08051 10.0097 1.41813 11.707C1.75575 13.4044 2.58911 14.9635 3.81282 16.1872C5.03653 17.4109 6.59563 18.2443 8.29296 18.5819C9.99029 18.9195 11.7496 18.7462 13.3485 18.084C14.9473 17.4217 16.3139 16.3002 17.2754 14.8612C18.2368 13.4223 18.75 11.7306 18.75 10C18.7474 7.68017 17.8246 5.45611 16.1843 3.81574C14.5439 2.17537 12.3198 1.25265 10 1.25Z" fill="#E0E0E0" />
  <path d="M10.0004 10.782C9.41518 10.7821 8.84308 10.6087 8.35643 10.2837C7.86978 9.95863 7.49045 9.49658 7.26642 8.95595C7.04238 8.41532 6.9837 7.82039 7.09779 7.24641C7.21189 6.67243 7.49363 6.14517 7.90739 5.73132C8.32116 5.31747 8.84836 5.03562 9.42231 4.9214C9.99627 4.80719 10.5912 4.86574 11.1319 5.08967C11.6726 5.31359 12.1347 5.69282 12.4598 6.17939C12.785 6.66597 12.9585 7.23804 12.9585 7.82325C12.9585 7.98901 12.8927 8.14798 12.7755 8.26519C12.6582 8.3824 12.4993 8.44825 12.3335 8.44825C12.1678 8.44825 12.0088 8.3824 11.8916 8.26519C11.7744 8.14798 11.7085 7.98901 11.7085 7.82325C11.7084 7.48544 11.6081 7.15526 11.4203 6.87444C11.2326 6.59362 10.9658 6.37478 10.6536 6.2456C10.3415 6.11641 9.99807 6.08267 9.66677 6.14865C9.33547 6.21463 9.03117 6.37736 8.79234 6.61627C8.55352 6.85518 8.3909 7.15954 8.32504 7.49087C8.25919 7.8222 8.29305 8.16561 8.42235 8.47769C8.55165 8.78978 8.77059 9.05651 9.05147 9.24417C9.33236 9.43184 9.66258 9.532 10.0004 9.532C10.1662 9.532 10.3251 9.59785 10.4423 9.71506C10.5595 9.83227 10.6254 9.99124 10.6254 10.157C10.6254 10.3228 10.5595 10.4817 10.4423 10.5989C10.3251 10.7162 10.1662 10.782 10.0004 10.782Z" fill="#E0E0E0" />
  <path d="M9.99914 15.4494C9.21479 15.4484 8.46286 15.1363 7.90831 14.5816C7.35375 14.027 7.04184 13.275 7.04102 12.4906C7.04102 12.3249 7.10687 12.1659 7.22408 12.0487C7.34129 11.9315 7.50026 11.8656 7.66602 11.8656C7.83178 11.8656 7.99075 11.9315 8.10796 12.0487C8.22517 12.1659 8.29102 12.3249 8.29102 12.4906C8.29114 12.8284 8.39143 13.1586 8.57919 13.4394C8.76696 13.7202 9.03377 13.9391 9.3459 14.0683C9.65803 14.1975 10.0015 14.2312 10.3328 14.1652C10.6641 14.0992 10.9684 13.9365 11.2072 13.6976C11.446 13.4587 11.6086 13.1543 11.6745 12.823C11.7403 12.4917 11.7065 12.1483 11.5772 11.8362C11.4479 11.5241 11.2289 11.2574 10.9481 11.0697C10.6672 10.882 10.3369 10.7819 9.99914 10.7819C9.83338 10.7819 9.67441 10.716 9.5572 10.5988C9.43999 10.4816 9.37414 10.3226 9.37414 10.1569C9.37414 9.9911 9.43999 9.83213 9.5572 9.71492C9.67441 9.59771 9.83338 9.53186 9.99914 9.53186C10.7838 9.53186 11.5364 9.84358 12.0913 10.3985C12.6462 10.9533 12.9579 11.7059 12.9579 12.4906C12.9579 13.2753 12.6462 14.0279 12.0913 14.5828C11.5364 15.1376 10.7838 15.4494 9.99914 15.4494Z" fill="#E0E0E0" />
  <path d="M10 16.2127C9.83424 16.2127 9.67527 16.1468 9.55806 16.0296C9.44085 15.9124 9.375 15.7535 9.375 15.5877V14.8252C9.375 14.6594 9.44085 14.5005 9.55806 14.3833C9.67527 14.266 9.83424 14.2002 10 14.2002C10.1658 14.2002 10.3247 14.266 10.4419 14.3833C10.5592 14.5005 10.625 14.6594 10.625 14.8252V15.5877C10.625 15.7535 10.5592 15.9124 10.4419 16.0296C10.3247 16.1468 10.1658 16.2127 10 16.2127Z" fill="#E0E0E0" />
  <path d="M10 6.1126C9.83424 6.1126 9.67527 6.04675 9.55806 5.92954C9.44085 5.81233 9.375 5.65336 9.375 5.4876V4.4126C9.375 4.24684 9.44085 4.08787 9.55806 3.97066C9.67527 3.85345 9.83424 3.7876 10 3.7876C10.1658 3.7876 10.3247 3.85345 10.4419 3.97066C10.5592 4.08787 10.625 4.24684 10.625 4.4126V5.4876C10.625 5.65336 10.5592 5.81233 10.4419 5.92954C10.3247 6.04675 10.1658 6.1126 10 6.1126Z" fill="#E0E0E0" />
</svg>