<svg width="16" height="16" viewBox="0 0 16 16" fill="none" xmlns="http://www.w3.org/2000/svg">
  <path d="M8.01668 16C3.74427 15.9963 0.22412 12.6466 0.0102222 8.38109C-0.203676 4.11563 2.96371 0.430766 7.21433 0V3.24026C4.79977 3.64816 3.07737 5.80457 3.21396 8.24865C3.35054 10.6927 5.30249 12.6439 7.74748 12.7805C10.1925 12.917 12.3497 11.1953 12.7577 8.78159H15.9992C15.5818 12.8773 12.1343 15.9945 8.01588 16H8.01668ZM16 7.1775H12.7585C12.4171 5.16092 10.8364 3.58118 8.81902 3.24026V0C12.6118 0.388175 15.6105 3.38542 15.9992 7.1767L16 7.1775Z" fill="#B0BFDB" />
</svg>