<svg width="18" height="18" viewBox="0 0 18 18" fill="none" xmlns="http://www.w3.org/2000/svg">
  <path d="M1.91991 9.38134L2.43905 9.92262L2.44481 9.9171L2.45045 9.91146L1.91991 9.38134ZM1.46047 9.82199L0.941323 9.2807L0.935565 9.28622L0.929927 9.29187L1.46047 9.82199ZM1.46047 12.0472L1.991 11.5171L1.46047 12.0472ZM5.94889 16.5392L6.47947 16.0091L6.47943 16.009L5.94889 16.5392ZM8.17235 16.5392L7.64375 16.0071L7.64181 16.009L8.17235 16.5392ZM10.8043 13.9243L11.3329 14.4564L11.3349 14.4544L10.8043 13.9243ZM16.4924 8.23178L15.9618 7.70166L16.4924 8.23178ZM16.9924 6.84403L17.7391 6.77428L17.7391 6.77423L16.9924 6.84403ZM16.6754 3.45269L15.9286 3.52249L15.9286 3.5225L16.6754 3.45269ZM16.6004 2.65074L17.3472 2.58094L17.3471 2.58089L16.6004 2.65074ZM15.2816 1.34564L15.2201 2.09311L15.2201 2.09311L15.2816 1.34564ZM11.1545 1.00591L11.0927 1.75337L11.0929 1.75338L11.1545 1.00591ZM9.78721 1.50799L10.3177 2.03812L10.3178 2.03808L9.78721 1.50799ZM7.49299 3.80392L6.96246 3.27379L6.96245 3.2738L7.49299 3.80392ZM8.01557 4.3074L8.54527 4.83836L8.5461 4.83753L8.01557 4.3074ZM10.3 2.02123L10.8306 2.55136L10.8307 2.55123L10.3 2.02123ZM11.095 1.72932L11.1565 0.981851L11.1562 0.981826L11.095 1.72932ZM15.2221 2.06905L15.2837 1.32158L15.2836 1.32158L15.2221 2.06905ZM15.8782 2.71836L16.625 2.64857L16.625 2.64848L15.8782 2.71836ZM15.9469 3.45269L15.2001 3.52249L15.2001 3.5225L15.9469 3.45269ZM16.2702 6.91156L15.5235 6.98137L15.5235 6.98139L16.2702 6.91156ZM15.9795 7.71844L16.5094 8.24917L16.51 8.24856L15.9795 7.71844ZM7.65952 16.0259L7.12959 15.4951L7.12898 15.4957L7.65952 16.0259ZM6.46178 16.0259L5.93124 16.556L5.93128 16.556L6.46178 16.0259ZM1.98561 11.5462L2.51615 11.0161L1.98561 11.5462ZM1.731 11.0348L0.985819 11.1196L0.985832 11.1198L1.731 11.0348ZM1.97335 10.3352L1.44365 9.80426L1.44281 9.8051L1.97335 10.3352ZM1.40077 8.84005L0.941323 9.2807L1.97961 10.3633L2.43905 9.92262L1.40077 8.84005ZM0.929927 9.29187C0.492385 9.72975 0.25 10.3156 0.25 10.9346H1.75C1.75 10.713 1.83467 10.5086 1.991 10.3521L0.929927 9.29187ZM0.25 10.9346C0.25 11.5536 0.492384 12.1394 0.929927 12.5773L1.991 11.5171C1.83467 11.3606 1.75 11.1562 1.75 10.9346H0.25ZM0.929927 12.5773L5.41835 17.0693L6.47943 16.009L1.991 11.5171L0.929927 12.5773ZM5.41831 17.0692C5.85593 17.5073 6.44163 17.75 7.06062 17.75V16.25C6.83968 16.25 6.63573 16.1655 6.47947 16.0091L5.41831 17.0692ZM7.06062 17.75C7.67967 17.75 8.26533 17.5072 8.70289 17.0693L7.64181 16.009C7.4855 16.1655 7.28151 16.25 7.06062 16.25V17.75ZM8.70095 17.0712L11.3329 14.4564L10.2757 13.3923L7.64376 16.0071L8.70095 17.0712ZM11.3349 14.4544L17.0229 8.7619L15.9618 7.70166L10.2738 13.3942L11.3349 14.4544ZM17.0229 8.7619C17.5466 8.23777 17.808 7.51202 17.7391 6.77428L16.2456 6.91378C16.2731 7.20745 16.1699 7.49339 15.9618 7.70166L17.0229 8.7619ZM17.7391 6.77423L17.4221 3.38289L15.9286 3.5225L16.2456 6.91383L17.7391 6.77423ZM17.4221 3.3829L17.3472 2.58094L15.8537 2.72054L15.9286 3.52249L17.4221 3.3829ZM17.3471 2.58089C17.248 1.52049 16.4049 0.685506 15.3431 0.598162L15.2201 2.09311C15.5559 2.12074 15.8221 2.38353 15.8537 2.72058L17.3471 2.58089ZM15.3431 0.598166L11.216 0.258438L11.0929 1.75338L15.2201 2.09311L15.3431 0.598166ZM11.2162 0.258454C10.4878 0.198303 9.77291 0.461154 9.25663 0.977904L10.3178 2.03808C10.5227 1.83296 10.8045 1.72956 11.0927 1.75337L11.2162 0.258454ZM9.25668 0.977857L6.96246 3.27379L8.02352 4.33405L10.3177 2.03812L9.25668 0.977857ZM8.5461 4.83753L10.8306 2.55136L9.76951 1.4911L7.48505 3.77727L8.5461 4.83753ZM10.8307 2.55123C10.8842 2.49762 10.9575 2.47058 11.0338 2.47682L11.1562 0.981826C10.6416 0.939669 10.1351 1.12507 9.76938 1.49123L10.8307 2.55123ZM11.0335 2.47679L15.1606 2.81652L15.2836 1.32158L11.1565 0.981851L11.0335 2.47679ZM15.1605 2.81652C15.1453 2.81527 15.1328 2.8023 15.1315 2.78825L16.625 2.64848C16.5586 1.93923 15.9943 1.38013 15.2837 1.32158L15.1605 2.81652ZM15.1315 2.78816L15.2001 3.52249L16.6936 3.3829L16.625 2.64857L15.1315 2.78816ZM15.2001 3.5225L15.5235 6.98137L17.017 6.84175L16.6936 3.38289L15.2001 3.5225ZM15.5235 6.98139C15.5307 7.05912 15.504 7.13328 15.449 7.18832L16.51 8.24856C16.8806 7.87775 17.0658 7.36376 17.017 6.84173L15.5235 6.98139ZM15.4496 7.18771L7.12959 15.4951L8.18945 16.5566L16.5094 8.24917L15.4496 7.18771ZM7.12898 15.4957C7.09122 15.5335 7.03014 15.5336 6.99228 15.4957L5.93128 16.556C6.55496 17.1801 7.56637 17.1802 8.19006 16.556L7.12898 15.4957ZM6.99231 15.4957L2.51615 11.0161L1.45507 12.0763L5.93124 16.556L6.99231 15.4957ZM2.51615 11.0161C2.4834 10.9833 2.47694 10.9565 2.47617 10.9498L0.985832 11.1198C1.02938 11.5015 1.21153 11.8326 1.45507 12.0763L2.51615 11.0161ZM2.47618 10.9499C2.47193 10.9125 2.48279 10.8865 2.50389 10.8653L1.44281 9.8051C1.09708 10.1511 0.930126 10.6307 0.985819 11.1196L2.47618 10.9499ZM2.50305 10.8662L8.54527 4.83836L7.48588 3.77644L1.44365 9.80426L2.50305 10.8662ZM6.96245 3.2738L1.38937 8.85121L2.45045 9.91146L8.02353 4.33404L6.96245 3.2738Z" fill="#B0BFDB" />
</svg>