<svg width="21" height="22" viewBox="0 0 21 22" fill="none" xmlns="http://www.w3.org/2000/svg">
  <path d="M17.3 11C17.3 6.41604 13.584 2.7 9 2.7C4.41604 2.7 0.699999 6.41604 0.7 11C0.7 15.584 4.41604 19.3 9 19.3C13.584 19.3 17.3 15.584 17.3 11Z" fill="#F3F3F3" stroke="#F3F3F3" stroke-width="0.6" />
  <path d="M18.0711 18.0711C16.6725 19.4696 14.8907 20.422 12.9509 20.8079C11.0111 21.1937 9.00043 20.9957 7.17317 20.2388C5.3459 19.4819 3.78412 18.2002 2.6853 16.5557C1.58649 14.9112 1 12.9778 1 11C1 9.02219 1.58649 7.08879 2.6853 5.4443C3.78412 3.79981 5.3459 2.51808 7.17316 1.76121C9.00043 1.00433 11.0111 0.806295 12.9509 1.19215C14.8907 1.578 16.6725 2.53041 18.0711 3.92893" stroke="#3A85F4" stroke-width="1.2" />
  <path d="M8 11L7.53148 10.6252L7.23163 11L7.53148 11.3748L8 11ZM20 11.6C20.3314 11.6 20.6 11.3314 20.6 11C20.6 10.6686 20.3314 10.4 20 10.4V11.6ZM11.5315 5.62518L7.53148 10.6252L8.46852 11.3748L12.4685 6.37482L11.5315 5.62518ZM7.53148 11.3748L11.5315 16.3748L12.4685 15.6252L8.46852 10.6252L7.53148 11.3748ZM8 11.6H20V10.4H8V11.6Z" fill="#3A85F4" />
</svg>