<svg width="16" height="16" viewBox="0 0 16 16" fill="none" xmlns="http://www.w3.org/2000/svg">
  <path d="M5.33333 5.33333H3.55556V7.11111H5.33333V5.33333Z" fill="#B0BFDB" />
  <path d="M7.11111 5.33333H8.88889V7.11111H7.11111V5.33333Z" fill="#B0BFDB" />
  <path d="M12.4444 5.33333H10.6667V7.11111H12.4444V5.33333Z" fill="#B0BFDB" />
  <path d="M0 1.77778V16L4.26667 12.8C4.57406 12.5686 4.94856 12.4437 5.33333 12.4444H14.2222C15.2041 12.4444 16 11.6485 16 10.6667V1.77778C16 0.795938 15.2041 0 14.2222 0H1.77778C0.795938 0 0 0.795938 0 1.77778ZM1.77778 12.4444V1.77778H14.2222V10.6667H4.74133C4.35651 10.6656 3.98191 10.7905 3.67467 11.0222L1.77778 12.4444Z" fill="#B0BFDB" />
</svg>